# xmcd
#
# Track frame offsets: 
#        150
#        27372
#        44672
#        75962
#        97765
#        118980
#        139012
#        160642
#        180820
#        193600
#
# Disc length: 2840 seconds
#
# Revision: 0
# Processed by: cddbd v1.5.1PL0 Copyright (c) Steve Scherf et al.
# Submitted via: ExactAudioCopy v0.95a5
#
DISCID=710b160a
DTITLE=Tré - Delivered For Glory, Reclaiming The Blues
DYEAR=1996
DGENRE=Blues
TTITLE0=One Eyed Man
TTITLE1=You Took The Blues Out Of Me
TTITLE2=Midnight Train For Home
TTITLE3=I'm Very Superstitious
TTITLE4=Please Stay
TTITLE5=Delivered For Glory
TTITLE6=More Than A Woman
TTITLE7=Hard Hearted Woman
TTITLE8=Reclaiming The Blues
TTITLE9=Da Blues
EXTD=
EXTT0=
EXTT1=
EXTT2=
EXTT3=
EXTT4=
EXTT5=
EXTT6=
EXTT7=
EXTT8=
EXTT9=
PLAYORDER=
